<svg xmlns="http://www.w3.org/2000/svg" viewBox="0 0 219.72 575.44"><defs><style>.cls-1{fill:#29a8a5;}.cls-2{fill:#2db8c5;}.cls-3{fill:#fff;}</style></defs><g id="Calque_2" data-name="Calque 2"><g id="Calque_1-2" data-name="Calque 1"><path class="cls-1" d="M203.23,201.8V157.42c0-1,2.34-3.94,2.34-3.94l5.86-32.54V201.8Z"/><path class="cls-1" d="M219.63,201.8V157.42c0-1-2.35-3.94-2.35-3.94l-5.85-32.54V201.8Z"/><polygon class="cls-1" points="180.72 200.21 202.87 200.21 208.46 141.05 184.88 3 180.72 200.21"/><path class="cls-1" d="M218.82,191.64H191l-35.32,2a1,1,0,0,0-.94,1v85.25a1,1,0,0,1-1,1h-41a1,1,0,0,0-1,1V573a1,1,0,0,0,1,1H214.72a1,1,0,0,0,1-1V426.43a1,1,0,0,1,1.15-1c1.18.25,2.85-.34,2.85-5.58V381.3a1,1,0,0,0-1-1h0a1,1,0,0,1-1-1V307.63h-.89V213.07a1,1,0,0,1,.78-.95c.63-.19,1.43-1.41,1.43-6.28"/><path class="cls-2" d="M108.09,128h-3.62a2.05,2.05,0,0,0-2,2.05v1.12a2.07,2.07,0,0,1-.57,1.43l-6.56,6.8a2.12,2.12,0,0,0-.57,1.43v7.29a2,2,0,0,0,1.1,1.82c1.05.48,2.42,2.08,2,7.29a2.07,2.07,0,0,1-.64,1.3l-17.8,16.86a2.06,2.06,0,0,0-.64,1.49v20.46a2,2,0,0,0,1.07,1.8l.18.1A2,2,0,0,1,78.84,203h-6a2.05,2.05,0,0,0-2,2.05V285a2.05,2.05,0,0,0,2,2.05H106a2.05,2.05,0,0,0,2-2.05V129.26"/><path class="cls-2" d="M107.51,128h3.61a2.05,2.05,0,0,1,2.06,2.05v1.12a2.07,2.07,0,0,0,.57,1.43l6.55,6.8a2.08,2.08,0,0,1,.58,1.43v7.29a2,2,0,0,1-1.1,1.82c-1,.48-2.42,2.08-2,7.29a2.06,2.06,0,0,0,.63,1.3l17.81,16.86a2.06,2.06,0,0,1,.64,1.49v20.46a2,2,0,0,1-1.07,1.8l-.18.1a2,2,0,0,0,1.13,3.76h6a2.05,2.05,0,0,1,2.05,2.05V285a2.05,2.05,0,0,1-2.05,2.05H109.56a2.05,2.05,0,0,1-2-2.05V129.26"/><path class="cls-2" d="M149.72,202V157c0-1,2-4,2-4l5-33v82Z"/><path class="cls-2" d="M163.72,202V157c0-1-2-4-2-4l-5-33v82Z"/><path class="cls-2" d="M199.72,202V157c0-1,2-4,2-4l5-33v82Z"/><path class="cls-2" d="M213.72,202V157c0-1-2-4-2-4l-5-33v82Z"/><path class="cls-2" d="M0,202V157c0-1,2-4,2-4l5-33v82Z"/><path class="cls-2" d="M14,202V157c0-1-2-4-2-4L7,120v82Z"/><path class="cls-2" d="M50,202V157c0-1,2-4,2-4l5-33v82Z"/><path class="cls-2" d="M64,202V157c0-1-2-4-2-4l-5-33v82Z"/><path class="cls-2" d="M29,197,64.41,199a1,1,0,0,1,1,1V284a1,1,0,0,0,1,1h41a1,1,0,0,1,1,1V573a1,1,0,0,1-1,1H5.36a1,1,0,0,1-1-1V428.49a1,1,0,0,0-1.15-1C2,427.75.36,427.17.36,422V384a1,1,0,0,1,1-1h0a1,1,0,0,0,1-1V311.36h.89V218.12a1,1,0,0,0-.78-.93C1.84,217,1,215.8,1,211V196"/><path class="cls-2" d="M215,197H187.23L151.88,199a1,1,0,0,0-.94,1V284a1,1,0,0,1-1,1h-41a1,1,0,0,0-1,1V573a1,1,0,0,0,1,1h102a1,1,0,0,0,1-1V428.49a1,1,0,0,1,1.15-1c1.18.24,2.85-.34,2.85-5.51V384a1,1,0,0,0-1-1h0a1,1,0,0,1-1-1V311.36h-.89V218.12a1,1,0,0,1,.78-.93c.63-.19,1.42-1.39,1.42-6.19"/><polygon class="cls-2" points="33.4 200 14.49 200 9.72 140 34.59 0 33.4 200"/><polygon class="cls-2" points="31.04 200 49.95 200 54.72 140 34.59 0 31.04 200"/><polygon class="cls-2" points="182.87 200.39 163.96 200.39 159.19 140.39 184.06 0.39 182.87 200.39"/><polygon class="cls-2" points="180.5 200.39 199.41 200.39 204.19 140.39 184.06 0.39 180.5 200.39"/><path class="cls-3" d="M92.7,462.53v-52S97.22,397,109.22,397v65.49Z"/><path class="cls-3" d="M124.88,462.53v-52S120.36,397,108.36,397v65.49Z"/><path class="cls-3" d="M93.23,284h3.49V242s.1-3-2-3-2,3-2,3v42Z"/><path class="cls-3" d="M31.23,181h3.49V151.13A2,2,0,0,0,32.77,149a2.06,2.06,0,0,0-2.05,2.13V181Z"/><path class="cls-3" d="M181.23,181h3.49V151.13a2,2,0,0,0-1.95-2.13,2.06,2.06,0,0,0-2.05,2.13V181Z"/><path class="cls-3" d="M104.13,197h9.59V177.4s.29-1.4-5.36-1.4-5.64,1.4-5.64,1.4V197Z"/><path class="cls-3" d="M105.62,149h6.1V137.8s.18-.8-3.41-.8-3.59.8-3.59.8V149Z"/><path class="cls-3" d="M122.23,284h3.49V242s.1-3-2-3-2,3-2,3v42Z"/><path class="cls-3" d="M24.9,574.44H46.54V505s.66-5-12.08-5-12.74,5-12.74,5v69.48Z"/><path class="cls-3" d="M98.9,574.44h21.64V505s.66-5-12.08-5-12.74,5-12.74,5v69.48Z"/><path class="cls-3" d="M168.9,575.44h21.64V506s.66-5-12.08-5-12.74,5-12.74,5v69.48Z"/><path class="cls-3" d="M4.88,188.3a1.87,1.87,0,0,0-1.72.9c-1.72,1.64.08,2.05.08,2.05s.34,4.06,0,4c-2.39,1.83,0,4.06,0,4.06H5.79s2.39-2.23,0-4.06c-.34,0,0-4,0-4s1.8-.41.08-2.05a1.87,1.87,0,0,0-1.72-.9"/><path class="cls-3" d="M10.88,188.3a1.87,1.87,0,0,0-1.72.9c-1.72,1.64.08,2.05.08,2.05s.34,4.06,0,4c-2.39,1.83,0,4.06,0,4.06h2.55s2.39-2.23,0-4.06c-.34,0,0-4,0-4s1.8-.41.08-2.05a1.87,1.87,0,0,0-1.72-.9"/><path class="cls-3" d="M16.88,188.3a1.87,1.87,0,0,0-1.72.9c-1.72,1.64.08,2.05.08,2.05s.34,4.06,0,4c-2.39,1.83,0,4.06,0,4.06h2.55s2.39-2.23,0-4.06c-.34,0,0-4,0-4s1.8-.41.08-2.05a1.87,1.87,0,0,0-1.72-.9"/><path class="cls-3" d="M22.88,188.3a1.87,1.87,0,0,0-1.72.9c-1.72,1.64.08,2.05.08,2.05s.34,4.06,0,4c-2.39,1.83,0,4.06,0,4.06h2.55s2.39-2.23,0-4.06c-.34,0,0-4,0-4s1.8-.41.08-2.05a1.87,1.87,0,0,0-1.72-.9"/><path class="cls-3" d="M28.88,188.3a1.87,1.87,0,0,0-1.72.9c-1.72,1.64.08,2.05.08,2.05s.34,4.06,0,4c-2.39,1.83,0,4.06,0,4.06h2.55s2.39-2.23,0-4.06c-.34,0,0-4,0-4s1.8-.41.08-2.05a1.87,1.87,0,0,0-1.72-.9"/><path class="cls-3" d="M34.83,188.15a1.88,1.88,0,0,0-1.77.92c-1.77,1.68.07,2.11.07,2.11s.36,4.17,0,4.15c-2.45,1.89,0,4.18,0,4.18h2.63s2.45-2.29,0-4.18c-.35,0,0-4.15,0-4.15s1.85-.43.08-2.11a1.9,1.9,0,0,0-1.77-.92"/><path class="cls-3" d="M29.1,188.41a1.85,1.85,0,0,0-1.72.9c-1.72,1.63.07,2,.07,2s.35,4.06,0,4c-2.38,1.83,0,4.06,0,4.06H30s2.38-2.23,0-4.06c-.35,0,0-4,0-4s1.8-.41.08-2a1.89,1.89,0,0,0-1.73-.9"/><path class="cls-3" d="M35.1,188.41a1.85,1.85,0,0,0-1.72.9c-1.72,1.63.07,2,.07,2s.35,4.06,0,4c-2.38,1.83,0,4.06,0,4.06H36s2.38-2.23,0-4.06c-.35,0,0-4,0-4s1.8-.41.08-2a1.89,1.89,0,0,0-1.73-.9"/><path class="cls-3" d="M41.1,188.41a1.85,1.85,0,0,0-1.72.9c-1.72,1.63.07,2,.07,2s.35,4.06,0,4c-2.38,1.83,0,4.06,0,4.06H42s2.38-2.23,0-4.06c-.35,0,0-4,0-4s1.8-.41.08-2a1.89,1.89,0,0,0-1.73-.9"/><path class="cls-3" d="M47.1,188.41a1.85,1.85,0,0,0-1.72.9c-1.72,1.63.07,2,.07,2s.35,4.06,0,4c-2.38,1.83,0,4.06,0,4.06H48s2.38-2.23,0-4.06c-.35,0,0-4,0-4s1.8-.41.08-2a1.89,1.89,0,0,0-1.73-.9"/><path class="cls-3" d="M53.1,188.41a1.85,1.85,0,0,0-1.72.9c-1.72,1.63.07,2,.07,2s.35,4.06,0,4c-2.38,1.83,0,4.06,0,4.06H54s2.38-2.23,0-4.06c-.35,0,0-4,0-4s1.8-.41.08-2a1.89,1.89,0,0,0-1.73-.9"/><path class="cls-3" d="M59,188.25a2,2,0,0,0-1.77.92c-1.77,1.69.08,2.11.08,2.11s.36,4.17,0,4.15c-2.45,1.89,0,4.18,0,4.18H60s2.45-2.29,0-4.18c-.36,0,0-4.15,0-4.15s1.85-.42.08-2.11a2,2,0,0,0-1.77-.92"/><path class="cls-3" d="M155.72,188.4a1.82,1.82,0,0,0-1.72.9c-1.73,1.64.07,2,.07,2s.35,4.06,0,4c-2.38,1.83,0,4.06,0,4.06h2.56s2.38-2.23,0-4.06c-.35,0,0-4,0-4s1.79-.41.07-2a1.85,1.85,0,0,0-1.72-.9"/><path class="cls-3" d="M161.72,188.4a1.82,1.82,0,0,0-1.72.9c-1.73,1.64.07,2,.07,2s.35,4.06,0,4c-2.38,1.83,0,4.06,0,4.06h2.56s2.38-2.23,0-4.06c-.35,0,0-4,0-4s1.79-.41.07-2a1.85,1.85,0,0,0-1.72-.9"/><path class="cls-3" d="M167.72,188.4a1.82,1.82,0,0,0-1.72.9c-1.73,1.64.07,2,.07,2s.35,4.06,0,4c-2.38,1.83,0,4.06,0,4.06h2.56s2.38-2.23,0-4.06c-.35,0,0-4,0-4s1.79-.41.07-2a1.85,1.85,0,0,0-1.72-.9"/><path class="cls-3" d="M173.72,188.4a1.82,1.82,0,0,0-1.72.9c-1.73,1.64.07,2,.07,2s.35,4.06,0,4c-2.38,1.83,0,4.06,0,4.06h2.56s2.38-2.23,0-4.06c-.35,0,0-4,0-4s1.79-.41.07-2a1.85,1.85,0,0,0-1.72-.9"/><path class="cls-3" d="M179.72,188.4a1.82,1.82,0,0,0-1.72.9c-1.73,1.64.07,2,.07,2s.35,4.06,0,4c-2.38,1.83,0,4.06,0,4.06h2.56s2.38-2.23,0-4.06c-.35,0,0-4,0-4s1.79-.41.07-2a1.85,1.85,0,0,0-1.72-.9"/><path class="cls-3" d="M185.66,188.25a1.9,1.9,0,0,0-1.77.92c-1.77,1.68.08,2.1.08,2.1s.35,4.18,0,4.16c-2.45,1.89,0,4.18,0,4.18h2.63s2.45-2.29,0-4.18c-.36,0,0-4.16,0-4.16s1.84-.42.07-2.1a1.88,1.88,0,0,0-1.77-.92"/><path class="cls-3" d="M179.93,188.51a1.89,1.89,0,0,0-1.72.89c-1.72,1.64.08,2,.08,2s.35,4.06,0,4c-2.39,1.83,0,4.06,0,4.06h2.55s2.39-2.23,0-4.06c-.34,0,0-4,0-4s1.8-.41.08-2a1.89,1.89,0,0,0-1.72-.89"/><path class="cls-3" d="M185.93,188.51a1.89,1.89,0,0,0-1.72.89c-1.72,1.64.08,2,.08,2s.35,4.06,0,4c-2.39,1.83,0,4.06,0,4.06h2.55s2.39-2.23,0-4.06c-.34,0,0-4,0-4s1.8-.41.08-2a1.89,1.89,0,0,0-1.72-.89"/><path class="cls-3" d="M191.93,188.51a1.89,1.89,0,0,0-1.72.89c-1.72,1.64.08,2,.08,2s.35,4.06,0,4c-2.39,1.83,0,4.06,0,4.06h2.55s2.39-2.23,0-4.06c-.34,0,0-4,0-4s1.8-.41.08-2a1.89,1.89,0,0,0-1.72-.89"/><path class="cls-3" d="M197.93,188.51a1.89,1.89,0,0,0-1.72.89c-1.72,1.64.08,2,.08,2s.35,4.06,0,4c-2.39,1.83,0,4.06,0,4.06h2.55s2.39-2.23,0-4.06c-.34,0,0-4,0-4s1.8-.41.08-2a1.89,1.89,0,0,0-1.72-.89"/><path class="cls-3" d="M203.93,188.51a1.89,1.89,0,0,0-1.72.89c-1.72,1.64.08,2,.08,2s.35,4.06,0,4c-2.39,1.83,0,4.06,0,4.06h2.55s2.39-2.23,0-4.06c-.34,0,0-4,0-4s1.8-.41.08-2a1.89,1.89,0,0,0-1.72-.89"/><path class="cls-3" d="M209.88,188.35a1.9,1.9,0,0,0-1.77.92c-1.77,1.68.07,2.11.07,2.11s.36,4.17,0,4.15c-2.45,1.89,0,4.18,0,4.18h2.63s2.45-2.29,0-4.18c-.35,0,0-4.15,0-4.15s1.85-.43.08-2.11a1.93,1.93,0,0,0-1.77-.92"/><path class="cls-3" d="M81,291.59a1.85,1.85,0,0,0-1.72.9c-1.72,1.64.07,2.05.07,2.05s.35,4.06,0,4c-2.38,1.83,0,4.06,0,4.06h2.56s2.38-2.23,0-4.06c-.35,0,0-4,0-4s1.8-.41.08-2.05a1.85,1.85,0,0,0-1.72-.9"/><path class="cls-3" d="M87,291.59a1.85,1.85,0,0,0-1.72.9c-1.72,1.64.07,2.05.07,2.05s.35,4.06,0,4c-2.38,1.83,0,4.06,0,4.06h2.56s2.38-2.23,0-4.06c-.35,0,0-4,0-4s1.8-.41.08-2.05a1.85,1.85,0,0,0-1.72-.9"/><path class="cls-3" d="M93,291.59a1.85,1.85,0,0,0-1.72.9c-1.72,1.64.07,2.05.07,2.05s.35,4.06,0,4c-2.38,1.83,0,4.06,0,4.06h2.56s2.38-2.23,0-4.06c-.35,0,0-4,0-4s1.8-.41.08-2.05a1.85,1.85,0,0,0-1.72-.9"/><path class="cls-3" d="M99,291.59a1.85,1.85,0,0,0-1.72.9c-1.72,1.64.07,2.05.07,2.05s.35,4.06,0,4c-2.38,1.83,0,4.06,0,4.06h2.56s2.38-2.23,0-4.06c-.35,0,0-4,0-4s1.8-.41.08-2.05a1.85,1.85,0,0,0-1.72-.9"/><path class="cls-3" d="M105,291.59a1.85,1.85,0,0,0-1.72.9c-1.72,1.64.07,2.05.07,2.05s.35,4.06,0,4c-2.38,1.83,0,4.06,0,4.06h2.56s2.38-2.23,0-4.06c-.35,0,0-4,0-4s1.8-.41.08-2.05a1.85,1.85,0,0,0-1.72-.9"/><path class="cls-3" d="M111,291.43a1.92,1.92,0,0,0-1.77.93c-1.77,1.68.08,2.1.08,2.1s.36,4.18,0,4.16c-2.45,1.88,0,4.17,0,4.17h2.63s2.45-2.29,0-4.17c-.36,0,0-4.16,0-4.16s1.85-.42.08-2.1a1.92,1.92,0,0,0-1.77-.93"/><path class="cls-3" d="M70.58,326.21c-3.83,0-5.1,6.41-4.48,4.39-4.47,8,.2,10,.2,10s.9,19.85,0,19.77c-6.2,9,0,19.85,0,19.85H73s6.2-10.89,0-19.85c-.9.08,0-19.77,0-19.77s4.67-2,.19-10c.63,2-.64-4.39-4.47-4.39"/><path class="cls-3" d="M86.2,326.21c-3.83,0-5.1,6.41-4.48,4.39-4.48,8,.19,10,.19,10s.91,19.85,0,19.77c-6.2,9,0,19.85,0,19.85h6.66s6.2-10.89,0-19.85c-.91.08,0-19.77,0-19.77s4.67-2,.19-10c.62,2-.65-4.39-4.48-4.39"/><path class="cls-3" d="M101.81,326.21c-3.83,0-5.1,6.41-4.48,4.39-4.47,8,.2,10,.2,10s.9,19.85,0,19.77c-6.2,9,0,19.85,0,19.85h6.65s6.2-10.89,0-19.85c-.9.08,0-19.77,0-19.77s4.67-2,.2-10c.62,2-.65-4.39-4.48-4.39"/><path class="cls-3" d="M117.43,326.21c-3.83,0-5.1,6.41-4.48,4.39-4.48,8,.19,10,.19,10s.91,19.85,0,19.77c-6.2,9,0,19.85,0,19.85h6.66s6.2-10.89,0-19.85c-.91.08,0-19.77,0-19.77s4.67-2,.19-10c.63,2-.64-4.39-4.48-4.39"/><path class="cls-3" d="M133,326.21c-3.83,0-5.1,6.41-4.47,4.39-4.48,8,.19,10,.19,10s.91,19.85,0,19.77c-6.2,9,0,19.85,0,19.85h6.65s6.2-10.89,0-19.85c-.9.08,0-19.77,0-19.77s4.68-2,.2-10c.62,2-.65-4.39-4.48-4.39"/><path class="cls-3" d="M148.51,325.43c-3.94,0-5.24,6.6-4.6,4.53-4.61,8.22.2,10.29.2,10.29s.93,20.42,0,20.33c-6.38,9.22,0,20.42,0,20.42H151s6.38-11.2,0-20.42c-.93.09,0-20.33,0-20.33s4.81-2.07.2-10.29c.64,2.07-.67-4.53-4.61-4.53"/><path class="cls-3" d="M105.25,291.69a1.85,1.85,0,0,0-1.72.9c-1.72,1.64.07,2.05.07,2.05s.35,4.06,0,4c-2.38,1.83,0,4.06,0,4.06h2.56s2.38-2.23,0-4.06c-.35,0,0-4,0-4s1.79-.41.07-2.05a1.85,1.85,0,0,0-1.72-.9"/><path class="cls-3" d="M111.25,291.69a1.85,1.85,0,0,0-1.72.9c-1.72,1.64.07,2.05.07,2.05s.35,4.06,0,4c-2.38,1.83,0,4.06,0,4.06h2.56s2.38-2.23,0-4.06c-.35,0,0-4,0-4s1.79-.41.07-2.05a1.85,1.85,0,0,0-1.72-.9"/><path class="cls-3" d="M117.25,291.69a1.85,1.85,0,0,0-1.72.9c-1.72,1.64.07,2.05.07,2.05s.35,4.06,0,4c-2.38,1.83,0,4.06,0,4.06h2.56s2.38-2.23,0-4.06c-.35,0,0-4,0-4s1.79-.41.07-2.05a1.85,1.85,0,0,0-1.72-.9"/><path class="cls-3" d="M123.25,291.69a1.85,1.85,0,0,0-1.72.9c-1.72,1.64.07,2.05.07,2.05s.35,4.06,0,4c-2.38,1.83,0,4.06,0,4.06h2.56s2.38-2.23,0-4.06c-.35,0,0-4,0-4s1.79-.41.07-2.05a1.85,1.85,0,0,0-1.72-.9"/><path class="cls-3" d="M129.25,291.69a1.85,1.85,0,0,0-1.72.9c-1.72,1.64.07,2.05.07,2.05s.35,4.06,0,4c-2.38,1.83,0,4.06,0,4.06h2.56s2.38-2.23,0-4.06c-.35,0,0-4,0-4s1.79-.41.07-2.05a1.85,1.85,0,0,0-1.72-.9"/><path class="cls-3" d="M135.19,291.54a1.93,1.93,0,0,0-1.77.92c-1.77,1.68.08,2.11.08,2.11s.36,4.17,0,4.15c-2.45,1.89,0,4.18,0,4.18h2.63s2.45-2.29,0-4.18c-.36,0,0-4.15,0-4.15s1.85-.43.08-2.11a1.94,1.94,0,0,0-1.78-.92"/><path class="cls-3" d="M15.32,429.77h-4.1V426l-.9-.19V423.6l1,.17s0-14,11-14v5.8s-6,1.67-6,7.93c0,.54,1,.27,1,.27v2h-1v4Z"/><path class="cls-3" d="M28.93,429.77H33V426l.9-.19V423.6l-1,.17s0-14-11-14v5.8s6,1.67,6,7.93c0,.54-1,.27-1,.27v2h1v4Z"/><path class="cls-3" d="M39.32,429.77h-4.1V426l-.9-.19V423.6l1,.17s0-14,11-14v5.8s-6,1.67-6,7.93c0,.54,1,.27,1,.27v2h-1v4Z"/><path class="cls-3" d="M52.93,429.77H57V426l.9-.19V423.6l-1,.17s0-14-11-14v5.8s6,1.67,6,7.93c0,.54-1,.27-1,.27v2h1v4Z"/><path class="cls-3" d="M63.32,429.77h-4.1V426l-.9-.19V423.6l1,.17s0-14,11-14v5.8s-6,1.67-6,7.93c0,.54,1,.27,1,.27v2h-1v4Z"/><path class="cls-3" d="M76.93,429.77H81V426l.9-.19V423.6l-1,.17s0-14-11-14v5.8s6,1.67,6,7.93c0,.54-1,.27-1,.27v2h1v4Z"/><path class="cls-3" d="M138,429.77h-4.1V426l-.9-.19V423.6l1,.17s0-14,11-14v5.8s-6,1.67-6,7.93c0,.54,1,.27,1,.27v2h-1v4Z"/><path class="cls-3" d="M151.6,429.77h4.1V426l.9-.19V423.6l-1,.17s0-14-11-14v5.8s6,1.67,6,7.93c0,.54-1,.27-1,.27v2h1v4Z"/><path class="cls-3" d="M162,429.77h-4.1V426l-.9-.19V423.6l1,.17s0-14,11-14v5.8s-6,1.67-6,7.93c0,.54,1,.27,1,.27v2h-1v4Z"/><path class="cls-3" d="M175.6,429.77h4.1V426l.9-.19V423.6l-1,.17s0-14-11-14v5.8s6,1.67,6,7.93c0,.54-1,.27-1,.27v2h1v4Z"/><path class="cls-3" d="M186,429.77h-4.1V426l-.9-.19V423.6l1,.17s0-14,11-14v5.8s-6,1.67-6,7.93c0,.54,1,.27,1,.27v2h-1v4Z"/><path class="cls-3" d="M199.6,429.77h4.1V426l.9-.19V423.6l-1,.17s0-14-11-14v5.8s6,1.67,6,7.93c0,.54-1,.27-1,.27v2h1v4Z"/><path class="cls-3" d="M17.23,247h3.49V217.13A2,2,0,0,0,18.77,215a2.06,2.06,0,0,0-2.05,2.13V247Z"/><path class="cls-3" d="M47.23,247h3.49V217.13A2,2,0,0,0,48.77,215a2.06,2.06,0,0,0-2.05,2.13V247Z"/><path class="cls-3" d="M17.23,289.36h3.49V259.5a2,2,0,0,0-1.95-2.14,2.07,2.07,0,0,0-2.05,2.14v29.86Z"/><path class="cls-3" d="M47.23,289.36h3.49V259.5a2,2,0,0,0-1.95-2.14,2.07,2.07,0,0,0-2.05,2.14v29.86Z"/><path class="cls-3" d="M166.06,247h3.49V217.13a2,2,0,0,0-2-2.13,2.06,2.06,0,0,0-2,2.13V247Z"/><path class="cls-3" d="M196.06,247h3.49V217.13a2,2,0,0,0-2-2.13,2.06,2.06,0,0,0-2,2.13V247Z"/><path class="cls-3" d="M166.06,289.36h3.49V259.5a2,2,0,0,0-2-2.14,2.07,2.07,0,0,0-2,2.14v29.86Z"/><path class="cls-3" d="M196.06,289.36h3.49V259.5a2,2,0,0,0-2-2.14,2.07,2.07,0,0,0-2,2.14v29.86Z"/></g></g></svg>