<svg xmlns="http://www.w3.org/2000/svg" viewBox="0 0 236.08 346.62"><defs><style>.cls-1{fill:#29a8a5;}.cls-2{fill:#2db8c5;}.cls-3{fill:#fff;}</style></defs><g id="Calque_2" data-name="Calque 2"><g id="Calque_1-2" data-name="Calque 1"><path class="cls-1" d="M42.15,85.82l-.68,4.09s-.69,0-.69,1.37.69,1.2.69,1.2l-.69,5.63s-2.05.68-1.36,1.37c.68,0,.68,2,.68,2S25.76,145,14.83,158.65A152.81,152.81,0,0,1,.48,177.77c-2.8,3.07,7.52,9.82,7.52,9.82V316l18.44,9.56"/><path class="cls-2" d="M42.15,86.5l.68,4.1s.68,0,.68,1.36-.68,1.2-.68,1.2l.68,5.63s2.05.69,1.37,1.37c-.68,0-.68,2-.68,2s17.76,47.81,28,56c0,0,12.3,9.56,11.61,17.76s-7.51,12.29-7.51,12.29l-3.42,146.6-46.44-9.56"/><path class="cls-1" d="M228.18,323.55v-186h7.9s-20-19.1-19.25-28.3c-.76-.7-3-1.41-3-2.83,0-.7-.75-5.74,0-7.47,0-.62-.75-1-.75-1.72V323.55"/><path class="cls-1" d="M197.91,315.75V136.11H190s20-18.44,19.25-27.32c.76-.68,3-1.37,3-2.73,0-.69.76-5.55,0-7.21,0-.61.76-1,.76-1.67V315.75"/><path class="cls-2" d="M223.15,315.75l-79.91,29.37a190.73,190.73,0,0,1-42.35-4.1c-21.17-4.78-74.45-15.71-74.45-15.71V186l85.38-18.44h37.5l72.46,17.08Z"/><path class="cls-1" d="M113.18,170.26,17.56,190.75S50.34,160,51,155.92l76.5-87.43L207.44,168.9s15.54,19.65,19.64,19.65l-75.65-17.61Z"/><path class="cls-2" d="M143.92,224.32V106.16s4.78-1.37,4.1-2S132.31,60.4,132.31,45.37c0,0-4.78-8.88-2.73-17.76,0,0,1.36-2.73-.69-4.1V13.27s-.68-4.1,0-4.78l-.68-1.26v219h15.71Z"/><path class="cls-2" d="M112.5,224.32V106.16s-4.78-1.37-4.1-2,15.71-43.71,15.71-58.74c0,0,4.78-8.88,2.73-17.76,0,0-1.36-2.73.69-4.1V13.27s.68-4.1,0-4.78l.68-1.26v219H112.5Z"/><rect class="cls-3" x="123.43" y="106.74" width="8.88" height="28.79" rx="2.06"/><rect class="cls-3" x="123.43" y="176.41" width="8.88" height="28.79" rx="2.08"/><path class="cls-3" d="M63.32,253.59H57.07l-.58-20.49s0-4.46,3.42-4.46,3.41,4.26,3.41,4.26Z"/><path class="cls-3" d="M187,253.59H180.7l-.58-20.49s0-4.46,3.41-4.46S187,232.9,187,232.9Z"/><path class="cls-3" d="M215.22,153.19H209l-.58-8.15s0-1.78,3.42-1.78,3.41,1.7,3.41,1.7Z"/><path class="cls-1" d="M21.46,312.6c.06-.42.59-.71,1.16-.65,10.92,1.13,101.63,10.51,110.68,10.12,2,0,88.12-10,89.58-12.32,1-1.83,6.74,9.95,8.14,12.91.18.37-.08.77-.59.92-9.28,2.59-86,24.2-96.35,23h-1c-3.11-.72-80-8.81-107-17.74-.56-.18-11.34-9.9-11-10.28C17.1,316.32,20.57,318.45,21.46,312.6Z"/></g></g></svg>