<svg xmlns="http://www.w3.org/2000/svg" width="600" height="216.576" viewBox="0 0 600 216.576"><path d="M250.755.117H230.69v86.257h22.467c9.208 0 13.816-4.165 13.816-12.494V16.693c0-11.053-5.404-16.576-16.218-16.576zm4.682 71.963c0 2.564-1.52 3.84-4.563 3.84h-8.65V10.568h8.048c3.443 0 5.165 2.084 5.165 6.248V72.08zM323.254.117h-7.935c-8.89 0-13.333 4.927-13.333 14.777V71.84c0 9.691 4.444 14.535 13.333 14.535h22.59V38.532h-11.534v.004h-4.888v10.45h4.888V75.92h-7.81c-3.362 0-5.048-2.08-5.048-6.243V16.813c0-4.162 1.686-6.246 5.049-6.246h2.885c3.278 0 4.924 2.084 4.924 6.246v7.693h11.533V15.13c0-10.007-4.887-15.013-14.654-15.013zm44.27 10.451h11.053v75.807h11.533V10.568h11.053V.115h-33.639v10.453zM429.892.116h-8.648c-9.213 0-13.818 4.927-13.818 14.777v71.483h11.533V48.985h13.216v37.391h11.534V14.893c0-9.85-4.606-14.777-13.817-14.777zm2.283 38.415H418.96V15.612c0-3.363 1.683-5.043 5.046-5.043h3.127c3.363 0 5.043 1.68 5.043 5.043v22.92zM466.91.118h-11.533v86.257h22.953V75.922h-11.42V.118zM278.66 86.375h11.533V23.068H278.66v63.307zM290.187.115h-11.542v11.542h11.542V.115zm59.063 86.26h11.533V23.068H349.25v63.307zM360.778.115h-11.542v11.542h11.542V.115zM600 107.254c0-13.515-6.08-25.597-15.633-33.705a19.474 19.474 0 0 0 2.092-8.77c0-8.025-4.832-14.91-11.735-17.941.555-2.14.882-4.375.882-6.692 0-14.72-11.932-26.652-26.649-26.652-2.18 0-4.287.287-6.314.782C538.933 5.87 530.54.002 520.765.002c-13.208 0-23.914 10.706-23.914 23.914v168.5c0 13.208 10.706 23.914 23.914 23.914 10.783 0 19.89-7.135 22.873-16.937 1.913.446 3.892.708 5.942.708 14.37 0 26.026-11.653 26.026-26.027 0-1.93-.228-3.806-.626-5.617 6.766-3.09 11.48-9.893 11.48-17.819 0-3.403-.873-6.604-2.403-9.398 9.737-8.108 15.943-20.32 15.943-33.986z" fill="#2db8c5"/><path d="M153.893 101.852h-9.586c-12.253 0-18.376 6.55-18.376 19.652v23.49c0 2.983.321 5.408.96 7.27.637 1.862 1.678 3.383 3.113 4.554 1.439 1.174 3.756 2.607 6.954 4.312l14.538 8.148c1.916 1.174 3.3 2.135 4.156 2.88.848.742 1.277 2.18 1.277 4.31v19.496c0 4.474-2.024 6.709-6.072 6.709h-2.715c-4.583 0-6.871-2.235-6.871-6.71v-6.234h-15.34v5.754c0 14.06 6.123 21.091 18.376 21.091h9.427c12.357 0 18.535-6.447 18.535-19.331v-24.448c0-4.046-.375-6.789-1.118-8.23a10.902 10.902 0 0 0-3.115-3.673c-1.334-1.012-3.6-2.422-6.792-4.236l-14.544-7.83c-1.913-1.17-3.3-2.129-4.15-2.873-.853-.745-1.28-2.184-1.28-4.313V122.62c0-4.58 2.184-6.868 6.55-6.868h2.4c4.472 0 6.709 2.289 6.709 6.868v11.75h15.34v-12.867c0-13.102-6.126-19.652-18.376-19.652zm61.863.001h-9.902c-12.256 0-18.379 6.496-18.379 19.49v75.74c0 12.994 6.123 19.493 18.379 19.493h9.902c12.252 0 18.376-6.5 18.376-19.494v-7.351h-15.34v6.231c0 4.475-2.024 6.712-6.073 6.712h-3.832c-4.05 0-6.072-2.237-6.072-6.712v-73.498c0-4.475 2.021-6.71 6.072-6.71h3.034c4.58 0 6.87 2.235 6.87 6.71v11.823h15.34v-12.944c0-12.994-6.123-19.49-18.375-19.49zm67.488 50.568h-18.857v-50.566H249.05v114.72h15.337v-50.256h18.857v50.256h15.337v-114.72h-15.337v50.566zm63.51-50.568h-14.698c-12.25 0-18.376 6.55-18.376 19.652v75.577c0 12.997 6.178 19.49 18.536 19.49h14.379c12.355 0 18.535-6.493 18.535-19.49v-75.577c0-13.102-6.126-19.652-18.376-19.652zm3.039 94.112c0 4.474-2.024 6.706-6.072 6.706h-7.83c-4.582 0-6.874-2.232-6.874-6.706v-73.502c0-4.471 2.238-6.712 6.712-6.712h7.193c4.577 0 6.87 2.24 6.87 6.712v73.502zm64.211-94.112h-14.697c-12.25 0-18.38 6.55-18.38 19.652v75.577c0 12.997 6.179 19.49 18.54 19.49h14.375c12.358 0 18.538-6.493 18.538-19.49v-75.577c0-13.102-6.129-19.652-18.376-19.652zm3.036 94.112c0 4.474-2.024 6.706-6.072 6.706h-7.829c-4.583 0-6.874-2.232-6.874-6.706v-73.502c0-4.471 2.24-6.712 6.715-6.712h7.192c4.577 0 6.868 2.24 6.868 6.712v73.502zm46.07 6.708V101.855h-15.338v114.72h30.706v-13.902h-15.369zM149.29 43.286L136.113.115h-10.217v86.26h11.533V33.473l6.687 20.525h10.416l6.686-20.525v52.902h11.53V.115h-11.53L149.29 43.286zm41.747 43.088h11.377V57.01L216.35.116H206.14l-9.415 43.169L186.88.116h-10.177l14.333 56.894v29.364zM79.235 0c-10.78 0-19.888 7.136-22.873 16.938a26.042 26.042 0 0 0-5.939-.708c-14.376 0-26.029 11.653-26.029 26.029 0 1.927.228 3.803.626 5.614-6.766 3.09-11.477 9.893-11.477 17.816 0 3.409.87 6.607 2.4 9.399C6.206 83.2 0 95.41 0 109.077c0 13.514 6.08 25.594 15.633 33.704a19.472 19.472 0 0 0-2.09 8.77c0 8.023 4.83 14.914 11.733 17.939-.552 2.143-.882 4.38-.882 6.695 0 14.717 11.932 26.651 26.652 26.651 2.177 0 4.284-.29 6.311-.782 3.707 8.404 12.102 14.274 21.878 14.274 13.208 0 23.914-10.706 23.914-23.911V23.914C103.15 10.706 92.443 0 79.235 0z" fill="#3c3c3b"/></svg>