<svg xmlns="http://www.w3.org/2000/svg" viewBox="0 0 144.41 475.33"><defs><style>.cls-1{fill:#29a8a5;}.cls-2{fill:#2db8c5;}.cls-3{fill:#fff;}</style></defs><g id="Calque_2" data-name="Calque 2"><g id="Calque_1-2" data-name="Calque 1"><path class="cls-1" d="M76,19.33l7.7,4.55A1.46,1.46,0,0,1,84.24,25V44.22a1.49,1.49,0,0,1-1.52,1.46H78.51A1.51,1.51,0,0,0,77,47.15V51.4a1.46,1.46,0,0,0,.8,1.29C80.84,54.23,91.63,60.82,92.54,77v33.48a1.4,1.4,0,0,0,.06.41c.5,1.61,4,12.56,8.46,13.81a1.53,1.53,0,0,1,1.16,1.15,3,3,0,0,1-2.08,3.55,1.43,1.43,0,0,0-.85,1.38c0,.44-.4.88-1.91,1a1.51,1.51,0,0,0-1.12.59c-1.41,1.89-5.79,8-5.79,11.37,0,0-3,14.5,7.81,21.58a1.72,1.72,0,0,0,.86.25c.6,0,1.7.67,1.7,5,0,3,5.19,1,14.53,14.92,13.48,20.9,23.86,38.81,22.82,71.65l.06,10.18a1.5,1.5,0,0,0,1.53,1.45h0a1.5,1.5,0,0,1,1.52,1.47v7.32a1.49,1.49,0,0,0,1.53,1.46h.06a1.5,1.5,0,0,1,1.52,1.47v33.57a1.32,1.32,0,0,1-.19.7,6.2,6.2,0,0,0-.84,3.08c0,2-3.12,6-3.12,11.94V471.65a1.49,1.49,0,0,1-1.52,1.46l-80.65.22H5.67a1.49,1.49,0,0,1-1.52-1.46V330c0-6-3.11-10-3.11-11.94A6.18,6.18,0,0,0,.19,315a1.32,1.32,0,0,1-.19-.7V280.75a1.5,1.5,0,0,1,1.52-1.47h.07a1.49,1.49,0,0,0,1.52-1.46V270.5A1.5,1.5,0,0,1,4.64,269h0a1.49,1.49,0,0,0,1.52-1.45l.06-10.18c-1-32.84,9.34-50.75,22.83-71.65,9.33-13.93,14.52-11.94,14.52-14.92,0-4.37,1.11-5,1.7-5a1.69,1.69,0,0,0,.86-.25C57,158.46,53.94,144,53.94,144c0-3.34-4.37-9.48-5.79-11.37A1.51,1.51,0,0,0,47,132c-1.5-.1-1.9-.54-1.9-1a1.43,1.43,0,0,0-.85-1.38,3,3,0,0,1-2.09-3.55,1.53,1.53,0,0,1,1.16-1.15c4.44-1.25,8-12.2,8.46-13.81a1.4,1.4,0,0,0,.06-.41V77.24c.91-16.19,11.71-22.78,14.76-24.32a1.44,1.44,0,0,0,.8-1.29V47.38a1.5,1.5,0,0,0-1.52-1.47H61.69a1.49,1.49,0,0,1-1.52-1.46V25.23a1.44,1.44,0,0,1,.55-1.12l5.67-4.54C67.43,19.57,70,.33,70,.33"/><path class="cls-1" d="M48.33,265.36s4.15-52.74,23.86-52.74l-1,64.68H52.43s0-9,0-10.95S48.33,265.36,48.33,265.36Z"/><path class="cls-1" d="M96.08,265.36s-4.15-52.74-23.86-52.74l-2.1,64.68H92s0-9,0-10.95S96.08,265.36,96.08,265.36Z"/><path class="cls-1" d="M72.4,80.1c-6.22-.17-9.33,7.14-9.33,7.14v17.91H81.74V87.24S78.63,79.93,72.4,80.1Z"/><path class="cls-1" d="M56.88,267.31a1.94,1.94,0,0,0-1.79.89c-1.78,1.63.08,2,.08,2s.36,4,0,4c-2.47,1.82,0,4,0,4h2.65s2.47-2.22,0-4c-.36,0,0-4,0-4s1.86-.41.08-2a1.94,1.94,0,0,0-1.79-.89"/><path class="cls-1" d="M63.1,267.31a1.9,1.9,0,0,0-1.78.89c-1.79,1.63.07,2,.07,2s.36,4,0,4c-2.47,1.82,0,4,0,4H64s2.48-2.22,0-4c-.36,0,0-4,0-4s1.87-.41.08-2a1.93,1.93,0,0,0-1.78-.89"/><path class="cls-1" d="M69.32,267.31a1.93,1.93,0,0,0-1.78.89c-1.79,1.63.08,2,.08,2s.36,4,0,4c-2.48,1.82,0,4,0,4h2.65s2.47-2.22,0-4c-.36,0,0-4,0-4s1.86-.41.08-2a2,2,0,0,0-1.79-.89"/><path class="cls-1" d="M75.55,267.31a2,2,0,0,0-1.79.89c-1.78,1.63.08,2,.08,2s.36,4,0,4c-2.47,1.82,0,4,0,4h2.65s2.47-2.22,0-4c-.36,0,0-4,0-4s1.87-.41.08-2a1.93,1.93,0,0,0-1.78-.89"/><path class="cls-1" d="M81.77,267.31a1.93,1.93,0,0,0-1.78.89c-1.79,1.63.08,2,.08,2s.36,4,0,4c-2.48,1.82,0,4,0,4h2.65s2.47-2.22,0-4c-.36,0,0-4,0-4s1.86-.41.07-2a1.9,1.9,0,0,0-1.78-.89"/><path class="cls-1" d="M88,267.31a1.94,1.94,0,0,0-1.79.89c-1.78,1.63.08,2,.08,2s.36,4,0,4c-2.47,1.82,0,4,0,4h2.65s2.47-2.22,0-4c-.36,0,0-4,0-4s1.86-.41.08-2a1.94,1.94,0,0,0-1.79-.89"/><polyline class="cls-1" points="97.64 264.36 44.4 264.36 44.4 268.35 99.38 268.35 99.38 265.2"/><path class="cls-2" d="M75.67,19.1l5.47,4.56a1.45,1.45,0,0,1,.53,1.13V44.1a1.47,1.47,0,0,1-1.47,1.47H76.14A1.47,1.47,0,0,0,74.67,47v4.28a1.45,1.45,0,0,0,.77,1.29c2.94,1.56,13.35,8.18,14.23,24.44V110.7a1.4,1.4,0,0,0,.06.41c.48,1.63,3.87,12.62,8.15,13.88A1.53,1.53,0,0,1,99,126.14a3,3,0,0,1-2,3.57,1.45,1.45,0,0,0-.82,1.39c0,.44-.39.88-1.84,1a1.45,1.45,0,0,0-1.08.6c-1.36,1.9-5.58,8.07-5.58,11.42,0,0-2.91,14.57,7.53,21.69A1.5,1.5,0,0,0,96,166c.57,0,1.64.68,1.64,5.06,0,3,5,1,14,15,13,21,23,39,22,72l.06,10.23a1.47,1.47,0,0,0,1.47,1.47h0a1.47,1.47,0,0,1,1.47,1.47v7.35a1.47,1.47,0,0,0,1.47,1.47h.06a1.47,1.47,0,0,1,1.47,1.47V315.3a1.47,1.47,0,0,1-.18.71,6.39,6.39,0,0,0-.82,3.09c0,2-3,6-3,12V473.64a1.48,1.48,0,0,1-1.47,1.47l-77.74.22H5.93a1.47,1.47,0,0,1-1.47-1.47V331.33c0-6-3-10-3-12a6.39,6.39,0,0,0-.82-3.09,1.47,1.47,0,0,1-.18-.71V281.8a1.47,1.47,0,0,1,1.47-1.47H2a1.47,1.47,0,0,0,1.47-1.47V271.5A1.47,1.47,0,0,1,4.93,270h0a1.47,1.47,0,0,0,1.47-1.46l.06-10.24c-1-33,9-51,22-72,9-14,14-12,14-15,0-4.38,1.07-5,1.64-5.06a1.5,1.5,0,0,0,.83-.25c10.44-7.12,7.53-21.69,7.53-21.69,0-3.35-4.22-9.52-5.58-11.42a1.45,1.45,0,0,0-1.08-.6c-1.45-.1-1.84-.54-1.84-1a1.45,1.45,0,0,0-.82-1.39,3,3,0,0,1-2-3.57,1.53,1.53,0,0,1,1.12-1.15C46.53,124,49.92,113,50.4,111.34a1.35,1.35,0,0,0,.06-.41V77.28C51.34,61,61.75,54.4,64.69,52.84a1.45,1.45,0,0,0,.77-1.29V47.28A1.47,1.47,0,0,0,64,45.81H59.93a1.47,1.47,0,0,1-1.47-1.47V25A1.47,1.47,0,0,1,59,23.89l5.47-4.56C65.46,19.33,70.2,0,70.2,0"/><path class="cls-3" d="M47.05,266.33s4-53,23-53l-1,65H51s0-9,0-11S47.05,266.33,47.05,266.33Z"/><path class="cls-3" d="M93.08,266.33s-4-53-23-53l-2,65H89.13s0-9,0-11S93.08,266.33,93.08,266.33Z"/><path class="cls-3" d="M70.26,80.16c-6-.17-9,7.17-9,7.17v18h18v-18S76.26,80,70.26,80.16Z"/><path class="cls-2" d="M55.29,268.29a1.82,1.82,0,0,0-1.72.9c-1.73,1.63.07,2,.07,2s.35,4.06,0,4c-2.38,1.83,0,4.05,0,4.05H56.2s2.38-2.22,0-4.05c-.35,0,0-4,0-4s1.79-.41.07-2a1.85,1.85,0,0,0-1.72-.9"/><path class="cls-2" d="M61.29,268.29a1.82,1.82,0,0,0-1.72.9c-1.73,1.63.07,2,.07,2s.35,4.06,0,4c-2.38,1.83,0,4.05,0,4.05H62.2s2.38-2.22,0-4.05c-.35,0,0-4,0-4s1.79-.41.07-2a1.85,1.85,0,0,0-1.72-.9"/><path class="cls-2" d="M67.29,268.29a1.82,1.82,0,0,0-1.72.9c-1.73,1.63.07,2,.07,2s.35,4.06,0,4c-2.38,1.83,0,4.05,0,4.05H68.2s2.38-2.22,0-4.05c-.35,0,0-4,0-4s1.79-.41.07-2a1.85,1.85,0,0,0-1.72-.9"/><path class="cls-2" d="M73.29,268.29a1.82,1.82,0,0,0-1.72.9c-1.73,1.63.07,2,.07,2s.35,4.06,0,4c-2.38,1.83,0,4.05,0,4.05H74.2s2.38-2.22,0-4.05c-.35,0,0-4,0-4s1.79-.41.07-2a1.85,1.85,0,0,0-1.72-.9"/><path class="cls-2" d="M79.29,268.29a1.82,1.82,0,0,0-1.72.9c-1.73,1.63.07,2,.07,2s.35,4.06,0,4c-2.38,1.83,0,4.05,0,4.05H80.2s2.38-2.22,0-4.05c-.35,0,0-4,0-4s1.79-.41.07-2a1.85,1.85,0,0,0-1.72-.9"/><path class="cls-2" d="M85.29,268.29a1.82,1.82,0,0,0-1.72.9c-1.73,1.63.07,2,.07,2s.35,4.06,0,4c-2.38,1.83,0,4.05,0,4.05H86.2s2.38-2.22,0-4.05c-.35,0,0-4,0-4s1.79-.41.07-2a1.85,1.85,0,0,0-1.72-.9"/><polyline class="cls-2" points="94.58 265.33 43.26 265.33 43.26 269.33 96.26 269.33 96.26 266.17"/></g></g></svg>