<svg xmlns="http://www.w3.org/2000/svg" viewBox="0 0 231.48 409.45"><defs><style>.cls-1{fill:#29a8a5;}.cls-2{fill:#2db8c5;}.cls-3{fill:#fff;}</style></defs><g id="Calque_2" data-name="Calque 2"><g id="Calque_1-2" data-name="Calque 1"><path class="cls-1" d="M105.93,31.17V1.45a1.5,1.5,0,0,0-3,0V31.17a1.5,1.5,0,0,0,3,0Z"/><path class="cls-2" d="M63.36,409.45H40.54A5.09,5.09,0,0,1,36,402.13l38.09-78.2a5.09,5.09,0,0,1,4.7-2.86l91.44,2.32a5.1,5.1,0,0,1,4,2.05l56.31,75.89a5.09,5.09,0,0,1-4.09,8.12h-16.1a5.07,5.07,0,0,1-4.2-2.22c-6.38-9.39-30.87-45.26-32.51-45-1.89.26-22.57-19.16-61.23-12.45-31.79,5.32-41.57,42.9-44,55.56A5.1,5.1,0,0,1,63.36,409.45Z"/><path class="cls-1" d="M138.05,406.25h19.66a3.83,3.83,0,0,0,3.69-4.87c-2.69-9.57-8.36-30.63-8.58-39.13a3.84,3.84,0,0,0-3-3.71c-8.54-1.89-31.75-6.17-48.83,3.65-.61-1.4,30.54,22.08,33.27,40.87A3.79,3.79,0,0,0,138.05,406.25Z"/><path class="cls-2" d="M23.72,407.87,60.91,334a.68.68,0,0,0-.84-1l-23.15,8.16a.66.66,0,0,0-.37.31L.09,407.23a.68.68,0,0,0,.6,1H23.11A.68.68,0,0,0,23.72,407.87Z"/><path class="cls-2" d="M36.41,330.2,75.4,317l.18,0H178.13a.55.55,0,0,0,.55-.55V304.69a.54.54,0,0,0-.53-.55L79,300.08a.47.47,0,0,0-.26.05L36,319.88a.55.55,0,0,0-.32.51v9.29A.55.55,0,0,0,36.41,330.2Z"/><path class="cls-1" d="M112,293.56l14.76.74a2.38,2.38,0,0,0,2.47-2.75L122,245.29a2.39,2.39,0,0,0-2.15-2l-6.59-.6a2.39,2.39,0,0,0-2.6,2.33l-.91,46.12A2.39,2.39,0,0,0,112,293.56Z"/><path class="cls-2" d="M144.56,296.45h18.55a1.16,1.16,0,0,0,1-1.65L134.7,230.75a1.18,1.18,0,0,0-.83-.66l-38.73-7.55a1.15,1.15,0,0,0-.85.16L70,238.23a1.12,1.12,0,0,0-.47.6L47.47,303.14a1.17,1.17,0,0,0,1.5,1.48l19.09-6.95a1.15,1.15,0,0,0,.74-.87l9.75-50.69a1.16,1.16,0,0,1,.76-.88l3.85-1.35a1.16,1.16,0,0,1,1.54,1.26L77.88,294a1.16,1.16,0,0,0,1.27,1.32l17.55-1.75a1.17,1.17,0,0,0,1-1.08l3.84-55.71A1.16,1.16,0,0,1,103,235.7l24,4.61a1.19,1.19,0,0,1,.9.83l15.56,54.46A1.17,1.17,0,0,0,144.56,296.45Z"/><path class="cls-2" d="M104.68,30.45c-12,.61-10.58,8.58-10.58,8,2-1.23,10.58-1.23,10.58-1.23s8,0,10,1.23C114.68,39,116.68,31.06,104.68,30.45Z"/><path class="cls-2" d="M81.3,223.28l12.36-7.48a1.23,1.23,0,0,1,.84-.15l36.65,6.52a1.22,1.22,0,0,0,1.43-1.33L114.86,48.15a1.24,1.24,0,0,1,.34-1c.87-.92,2.69-3.35.1-5.53a1.25,1.25,0,0,0-.9-.3c-2.6.23-16.66.12-18.52.1a1.12,1.12,0,0,0-.48.1c-.74.33-2.61,1.67-1.43,6.44a1.2,1.2,0,0,1,0,.5C92.88,54.63,81.1,201.66,79.46,222.14A1.22,1.22,0,0,0,81.3,223.28Z"/><polyline class="cls-3" points="99.68 50.45 94.05 209.51 95.68 207.45 100.44 50.45"/></g></g></svg>