<svg xmlns="http://www.w3.org/2000/svg" viewBox="0 0 355.05 279.71"><defs><style>.cls-1{fill:#29a8a5;}.cls-2{fill:#2db8c5;}</style></defs><g id="Calque_2" data-name="Calque 2"><g id="Calque_1-2" data-name="Calque 1"><path class="cls-1" d="M153.89,184.28s43.63-48.76-3.08-104.71S36.35,70.85,25.57,91.38c0,0-30.76,49.79,1,92.9H41.75S7.09,131.41,57.39,91.89c0,.52,36.45-31.82,76.48,12.32,33.88,46.2-.75,80.07-.75,80.07Z"/><path class="cls-2" d="M148.9,184.28s43.63-48.76-3.08-104.71S31.36,70.85,20.58,91.38c0,0-30.76,49.79,1.05,92.9H36.76S2.11,131.41,52.41,91.89c0,.52,36.44-31.82,76.47,12.32,33.88,46.2-.75,80.07-.75,80.07Z"/><path class="cls-1" d="M206.37,184.28S267.69,115.74,202,37.11,41.88,26.28,26,53.7c0,0-43.25,70,1.46,130.58H48.74S0,110,70.74,54.42c0,.72,51.22-44.73,107.49,17.32,47.62,64.93-1.06,112.54-1.06,112.54Z"/><path class="cls-2" d="M199.15,184.28s61.33-68.54-4.33-147.17S33.94,24.84,18.79,53.7c0,0-43.24,70,1.47,130.58H41.53S-7.18,110,63.52,54.42c0,.72,51.22-44.73,107.5,17.32C218.63,136.67,170,184.28,170,184.28Z"/><path class="cls-2" d="M318.31,275c-12-6.13-21.35-16.26-32.05-24.43a115.2,115.2,0,0,0-60.33-23.12c-22.68-1.81-45.26,3.15-67.7,6.82s-45.89,6-67.58-.82c-14.12-4.46-26.76-12.58-39.2-20.6h0c-1.63-1.06.6-4.56,2.37-3.74C73,218,92,226.24,113,227.82c32.81,2.48,64.95-9.23,97.75-11.87a178.32,178.32,0,0,1,77.83,11.48,183.45,183.45,0,0,1,35.36,18.17,175.33,175.33,0,0,1,16.07,12c4.27,3.57,12.56,8.51,14.6,13.74.63,1.62.85,2.05-1.23,3.68a20,20,0,0,1-4.3,2.42,28.81,28.81,0,0,1-10.24,2.26A41.41,41.41,0,0,1,318.31,275Z"/><path class="cls-1" d="M309.19,274.05c-11.56-6-20.6-16-30.92-24a109.87,109.87,0,0,0-58.21-22.71c-21.88-1.78-43.66,3.09-65.32,6.7s-44.28,5.9-65.2-.82C75.91,228.85,63.72,220.87,51.72,213h0c-1.58-1,.7-4.72,2.28-3.68,16.67,11,36.14,19,56.37,20.59,31.65,2.43,63.57-8,95.22-10.62,25.45-2.08,51.1-1.23,74.92,8.06a175.33,175.33,0,0,1,34.11,17.85A169.89,169.89,0,0,1,330.13,257c4.12,3.51,12.12,8.36,14.09,13.5.6,1.59.81,2-1.19,3.61a18.6,18.6,0,0,1-4.15,2.38,27.54,27.54,0,0,1-9.88,2.22A39.36,39.36,0,0,1,309.19,274.05Z"/></g></g></svg>