<svg xmlns="http://www.w3.org/2000/svg" viewBox="0 0 222.51 21.6"><defs><style>.cls-1{isolation:isolate;}.cls-2{fill:#f4f4f9;}</style></defs><g id="Calque_2" data-name="Calque 2"><g id="Calque_1-2" data-name="Calque 1"><g id="MDS_PROJECTS" data-name="MDS PROJECTS" class="cls-1"><g class="cls-1"><path class="cls-2" d="M3.3,25.5a.63.63,0,0,1-.49-.2.63.63,0,0,1-.2-.49V5.22A.68.68,0,0,1,3.3,4.5H4.8a.73.73,0,0,1,.54.18.74.74,0,0,1,.21.3L11.91,17.1,18.3,5a1.84,1.84,0,0,1,.22-.3.69.69,0,0,1,.53-.18h1.47a.69.69,0,0,1,.72.72V24.81a.68.68,0,0,1-.72.69H19.05a.68.68,0,0,1-.69-.69V10.05l-5,9.78a.93.93,0,0,1-.36.46,1,1,0,0,1-.6.17h-.93a.94.94,0,0,1-.61-.17,1.1,1.1,0,0,1-.38-.46l-5-9.78V24.81a.66.66,0,0,1-.19.49.66.66,0,0,1-.5.2Z" transform="translate(-2.61 -4.2)"/><path class="cls-2" d="M27.12,25.5a.63.63,0,0,1-.51-.2.69.69,0,0,1-.18-.49V5.22a.73.73,0,0,1,.18-.52.66.66,0,0,1,.51-.2h6.81a11.34,11.34,0,0,1,5,.93,5.78,5.78,0,0,1,2.76,2.74,10.6,10.6,0,0,1,.9,4.46q0,1.35,0,2.37t0,2.34a11.35,11.35,0,0,1-.92,4.58,5.5,5.5,0,0,1-2.7,2.7,11.34,11.34,0,0,1-4.87.88ZM29.37,23h4.56a8,8,0,0,0,3.3-.57A3.5,3.5,0,0,0,39,20.55a8.68,8.68,0,0,0,.59-3.33c0-.6.06-1.13.06-1.58V14.29c0-.45,0-1-.06-1.54a6.26,6.26,0,0,0-1.38-4.3c-.88-.94-2.36-1.4-4.44-1.4H29.37Z" transform="translate(-2.61 -4.2)"/><path class="cls-2" d="M53.85,25.8a10.52,10.52,0,0,1-4.38-.8,6.55,6.55,0,0,1-2.72-2.07,4.81,4.81,0,0,1-1-2.71.59.59,0,0,1,.19-.43.65.65,0,0,1,.47-.2h1.53a.73.73,0,0,1,.54.18.89.89,0,0,1,.24.42,3.31,3.31,0,0,0,.73,1.43,4.48,4.48,0,0,0,1.65,1.17,7,7,0,0,0,2.75.46,6.24,6.24,0,0,0,3.79-.92,2.89,2.89,0,0,0,1.22-2.44,2.28,2.28,0,0,0-.65-1.69,5.63,5.63,0,0,0-2-1.16q-1.32-.51-3.42-1.11a19.82,19.82,0,0,1-3.63-1.38,5.44,5.44,0,0,1-2.15-1.86,5.17,5.17,0,0,1-.7-2.82A5.05,5.05,0,0,1,47.22,7a6,6,0,0,1,2.5-2,9.52,9.52,0,0,1,4-.75A9.69,9.69,0,0,1,57,4.7,7,7,0,0,1,59.28,6a6.21,6.21,0,0,1,1.41,1.78,4.37,4.37,0,0,1,.51,1.84.67.67,0,0,1-.15.41.57.57,0,0,1-.48.19H59a.94.94,0,0,1-.44-.12.78.78,0,0,1-.34-.45,3,3,0,0,0-1.38-2.07,5.33,5.33,0,0,0-3.12-.84,6,6,0,0,0-3.17.75,2.55,2.55,0,0,0-1.21,2.34,2.57,2.57,0,0,0,.57,1.7,4.64,4.64,0,0,0,1.8,1.18A31.12,31.12,0,0,0,54.9,13.8a23.83,23.83,0,0,1,3.93,1.4A5.42,5.42,0,0,1,61.09,17a4.9,4.9,0,0,1,.74,2.8,5.23,5.23,0,0,1-1,3.22,6,6,0,0,1-2.78,2A11.42,11.42,0,0,1,53.85,25.8Z" transform="translate(-2.61 -4.2)"/></g><g class="cls-1"><path class="cls-2" d="M72.66,25.5a.72.72,0,0,1-.72-.72V5.25a.73.73,0,0,1,.21-.54.69.69,0,0,1,.51-.21h8a10.43,10.43,0,0,1,4.08.74,5.76,5.76,0,0,1,2.7,2.22,6.67,6.67,0,0,1,1,3.7,6.62,6.62,0,0,1-1,3.71A5.84,5.84,0,0,1,84.78,17a10.62,10.62,0,0,1-4.08.72H76.23v7a.73.73,0,0,1-.2.51.67.67,0,0,1-.52.21Zm3.51-11.07h4.38a3.9,3.9,0,0,0,2.67-.82,3.12,3.12,0,0,0,.93-2.45,3.35,3.35,0,0,0-.87-2.41,3.58,3.58,0,0,0-2.73-.92H76.17Z" transform="translate(-2.61 -4.2)"/><path class="cls-2" d="M92.43,25.5a.72.72,0,0,1-.72-.72V5.25a.73.73,0,0,1,.21-.54.69.69,0,0,1,.51-.21h7.77a8.93,8.93,0,0,1,5.73,1.68,5.89,5.89,0,0,1,2.1,4.89,6,6,0,0,1-1.1,3.69A6.14,6.14,0,0,1,104,16.89l4.38,7.65a.75.75,0,0,1,.09.33.59.59,0,0,1-.2.45.61.61,0,0,1-.43.18h-2.73a1.06,1.06,0,0,1-.78-.27,2.48,2.48,0,0,1-.42-.54l-3.87-7.11H95.88v7.2a.73.73,0,0,1-.2.51.67.67,0,0,1-.52.21Zm3.45-11.31h4.23a3.93,3.93,0,0,0,2.73-.82,3,3,0,0,0,.9-2.33,3.14,3.14,0,0,0-.89-2.36,3.86,3.86,0,0,0-2.74-.85H95.88Z" transform="translate(-2.61 -4.2)"/><path class="cls-2" d="M119.91,25.8a11.05,11.05,0,0,1-4.59-.88,6.58,6.58,0,0,1-3-2.74,9.58,9.58,0,0,1-1.17-4.6q0-1.29,0-2.55t0-2.58a9.26,9.26,0,0,1,1.2-4.56,7.06,7.06,0,0,1,3-2.76,11.47,11.47,0,0,1,9,0,7.05,7.05,0,0,1,3.06,2.76,9.26,9.26,0,0,1,1.2,4.56q.06,1.32.06,2.58t-.06,2.55a9.58,9.58,0,0,1-1.17,4.6,6.57,6.57,0,0,1-3,2.74A11.13,11.13,0,0,1,119.91,25.8Zm0-3.45a4.5,4.5,0,0,0,3.18-1.15,5.25,5.25,0,0,0,1.32-3.77c0-.88.06-1.69.06-2.44s0-1.56-.06-2.42a6.42,6.42,0,0,0-.65-2.83,3.58,3.58,0,0,0-1.57-1.6,5.17,5.17,0,0,0-2.28-.49,5.1,5.1,0,0,0-2.25.49,3.6,3.6,0,0,0-1.58,1.6,6.43,6.43,0,0,0-.64,2.83c0,.86,0,1.67,0,2.42s0,1.56,0,2.44a5.25,5.25,0,0,0,1.32,3.77A4.46,4.46,0,0,0,119.91,22.35Z" transform="translate(-2.61 -4.2)"/><path class="cls-2" d="M139.47,25.8a11.07,11.07,0,0,1-3.08-.41,7.67,7.67,0,0,1-2.59-1.24A6.34,6.34,0,0,1,132,22.08a6.19,6.19,0,0,1-.7-2.91.63.63,0,0,1,.18-.46.59.59,0,0,1,.45-.2h2.85a.75.75,0,0,1,.58.21,1.55,1.55,0,0,1,.32.57,3.51,3.51,0,0,0,.69,1.75,3.08,3.08,0,0,0,1.36,1,5.17,5.17,0,0,0,1.85.31,3.51,3.51,0,0,0,2.89-1.23,5.26,5.26,0,0,0,1-3.42V8H133.29a.69.69,0,0,1-.53-.21.72.72,0,0,1-.19-.51V5.22a.72.72,0,0,1,.19-.51.69.69,0,0,1,.53-.21H147a.72.72,0,0,1,.75.75V17.82a8.47,8.47,0,0,1-1,4.29,6.94,6.94,0,0,1-2.88,2.75A9.44,9.44,0,0,1,139.47,25.8Z" transform="translate(-2.61 -4.2)"/><path class="cls-2" d="M153,25.5a.72.72,0,0,1-.72-.72V5.25a.73.73,0,0,1,.21-.54A.69.69,0,0,1,153,4.5h13.2a.72.72,0,0,1,.75.75v2a.69.69,0,0,1-.21.51.73.73,0,0,1-.54.21H156.3v5.31h9.21a.77.77,0,0,1,.54.2.66.66,0,0,1,.21.52v1.86a.69.69,0,0,1-.21.53.76.76,0,0,1-.54.19H156.3v5.49h10.11a.72.72,0,0,1,.75.75v2a.69.69,0,0,1-.21.51.73.73,0,0,1-.54.21Z" transform="translate(-2.61 -4.2)"/><path class="cls-2" d="M178.83,25.8a10.44,10.44,0,0,1-4.73-1A6.81,6.81,0,0,1,171.15,22,9.76,9.76,0,0,1,170,17.67q0-1.23,0-2.64t0-2.7A9.65,9.65,0,0,1,171.16,8a7,7,0,0,1,3-2.81,10.5,10.5,0,0,1,4.7-1,11.54,11.54,0,0,1,3.66.54,8.46,8.46,0,0,1,2.76,1.48A6.92,6.92,0,0,1,187,8.43a6.31,6.31,0,0,1,.66,2.73.51.51,0,0,1-.17.45.65.65,0,0,1-.46.18H184.2a.85.85,0,0,1-.54-.16,1,1,0,0,1-.3-.56,4.13,4.13,0,0,0-1.65-2.7,5.46,5.46,0,0,0-2.91-.72,4.51,4.51,0,0,0-3.21,1.13,5.14,5.14,0,0,0-1.29,3.7q-.09,2.46,0,5a5.14,5.14,0,0,0,1.29,3.7,4.51,4.51,0,0,0,3.21,1.13,5.37,5.37,0,0,0,2.91-.73,4.18,4.18,0,0,0,1.65-2.69.76.76,0,0,1,.84-.72h2.85a.65.65,0,0,1,.46.18.51.51,0,0,1,.17.45,6.31,6.31,0,0,1-.66,2.73,6.92,6.92,0,0,1-1.77,2.21,8.46,8.46,0,0,1-2.76,1.48A11.54,11.54,0,0,1,178.83,25.8Z" transform="translate(-2.61 -4.2)"/><path class="cls-2" d="M196.59,25.5a.72.72,0,0,1-.72-.72V8.19h-5.55a.72.72,0,0,1-.72-.72V5.25a.73.73,0,0,1,.21-.54.69.69,0,0,1,.51-.21h15.3a.72.72,0,0,1,.75.75V7.47a.69.69,0,0,1-.21.51.73.73,0,0,1-.54.21H200.1V24.78a.69.69,0,0,1-.21.51.73.73,0,0,1-.54.21Z" transform="translate(-2.61 -4.2)"/><path class="cls-2" d="M216.6,25.8a11.62,11.62,0,0,1-4.67-.83,6.81,6.81,0,0,1-2.85-2.15,5.05,5.05,0,0,1-1-2.81.62.62,0,0,1,.63-.63h2.67a.93.93,0,0,1,.58.16,2,2,0,0,1,.35.41,3.05,3.05,0,0,0,.69,1.13,3.78,3.78,0,0,0,1.39.91,6,6,0,0,0,2.24.36,5.79,5.79,0,0,0,3.22-.72,2.25,2.25,0,0,0,1.07-1.95,1.78,1.78,0,0,0-.57-1.39,5.35,5.35,0,0,0-1.76-1,30.46,30.46,0,0,0-3.13-.92,17.53,17.53,0,0,1-3.77-1.3,5.8,5.8,0,0,1-2.28-1.94,5.33,5.33,0,0,1-.76-3,5.25,5.25,0,0,1,.94-3.09A6.34,6.34,0,0,1,212.26,5a10.27,10.27,0,0,1,4.19-.78,10.69,10.69,0,0,1,3.45.52,7.81,7.81,0,0,1,2.49,1.39,6.48,6.48,0,0,1,1.51,1.82,4.33,4.33,0,0,1,.56,1.91.67.67,0,0,1-.17.44.56.56,0,0,1-.46.19H221a1.07,1.07,0,0,1-.48-.12.88.88,0,0,1-.39-.45A2.49,2.49,0,0,0,219,8.31a4.51,4.51,0,0,0-2.55-.66,5,5,0,0,0-2.61.6,2,2,0,0,0-1,1.86,2,2,0,0,0,.49,1.39,4,4,0,0,0,1.59,1,30,30,0,0,0,2.9.9A21,21,0,0,1,222,14.7a5.39,5.39,0,0,1,2.37,1.91,5.25,5.25,0,0,1,.75,2.92,5.44,5.44,0,0,1-1.07,3.38,6.77,6.77,0,0,1-3,2.14A12.24,12.24,0,0,1,216.6,25.8Z" transform="translate(-2.61 -4.2)"/></g></g></g></g></svg>