<svg xmlns="http://www.w3.org/2000/svg" viewBox="0 0 197.79 186"><defs><style>.cls-1{fill:#2db8c5;}.cls-2{fill:#3c3c3b;}</style></defs><g id="Calque_2" data-name="Calque 2"><g id="Calque_1-2" data-name="Calque 1"><path class="cls-1" d="M197.79,92.22a37.92,37.92,0,0,0-13.44-29,16.8,16.8,0,0,0-8.29-23A22.83,22.83,0,0,0,153.9,11.6a23.05,23.05,0,0,0-5.42.67,20.56,20.56,0,0,0-39.38,8.29V165.44a20.56,20.56,0,0,0,40.23,6,22.69,22.69,0,0,0,5.11.61,22.39,22.39,0,0,0,22.38-22.38,22.62,22.62,0,0,0-.54-4.83,16.82,16.82,0,0,0,7.8-23.4A37.93,37.93,0,0,0,197.79,92.22Z"/><path class="cls-2" d="M68.13,0A20.58,20.58,0,0,0,48.46,14.56a22.32,22.32,0,0,0-26.95,26.6,16.82,16.82,0,0,0-7.8,23.4,38,38,0,0,0-.27,58.2,16.8,16.8,0,0,0,8.29,23,23.18,23.18,0,0,0-.76,5.75A22.92,22.92,0,0,0,43.89,174.4a23.2,23.2,0,0,0,5.43-.67,20.56,20.56,0,0,0,39.37-8.29V20.56A20.56,20.56,0,0,0,68.13,0Z"/></g></g></svg>